<svg width="1080" height="1080" viewBox="0 0 1080 1080" fill="none" xmlns="http://www.w3.org/2000/svg">
<rect width="1080" height="1080" fill="white"/>
<circle cx="540" cy="572" r="440.5" stroke="#FCC251" stroke-width="5" stroke-dasharray="30 30"/>
<circle cx="214.5" cy="886.5" r="48" stroke="#48B5AA" stroke-width="5" stroke-dasharray="10 10"/>
<circle cx="905.5" cy="116.5" r="48" stroke="#48B5AA" stroke-width="5" stroke-dasharray="10 10"/>
<g filter="url(#filter0_d_747_7028)">
<g filter="url(#filter1_d_747_7028)">
<path d="M277.581 701.455C277.155 697.856 275.427 695.062 272.397 693.074C269.366 691.085 265.649 690.091 261.246 690.091C258.026 690.091 255.209 690.612 252.794 691.653C250.403 692.695 248.533 694.127 247.184 695.95C245.858 697.773 245.195 699.845 245.195 702.165C245.195 704.106 245.657 705.775 246.58 707.172C247.527 708.545 248.734 709.693 250.202 710.616C251.67 711.516 253.209 712.262 254.819 712.854C256.428 713.422 257.908 713.884 259.257 714.239L266.644 716.227C268.538 716.724 270.645 717.411 272.965 718.287C275.309 719.163 277.546 720.358 279.676 721.874C281.831 723.365 283.606 725.283 285.003 727.626C286.4 729.97 287.098 732.847 287.098 736.256C287.098 740.186 286.069 743.737 284.009 746.909C281.973 750.081 278.99 752.603 275.06 754.473C271.154 756.343 266.407 757.278 260.82 757.278C255.612 757.278 251.102 756.438 247.29 754.757C243.502 753.076 240.519 750.732 238.341 747.726C236.187 744.719 234.968 741.227 234.684 737.25H243.774C244.011 739.996 244.935 742.269 246.544 744.068C248.178 745.844 250.238 747.17 252.723 748.045C255.233 748.898 257.932 749.324 260.82 749.324C264.182 749.324 267.2 748.779 269.875 747.69C272.551 746.578 274.669 745.039 276.232 743.074C277.794 741.085 278.576 738.765 278.576 736.114C278.576 733.699 277.901 731.734 276.551 730.219C275.202 728.704 273.426 727.473 271.225 726.526C269.023 725.579 266.644 724.75 264.087 724.04L255.138 721.483C249.456 719.849 244.958 717.518 241.644 714.487C238.329 711.457 236.672 707.491 236.672 702.591C236.672 698.519 237.773 694.968 239.975 691.938C242.2 688.884 245.183 686.516 248.924 684.835C252.688 683.131 256.89 682.278 261.53 682.278C266.218 682.278 270.384 683.119 274.03 684.8C277.676 686.457 280.564 688.73 282.695 691.618C284.849 694.506 285.986 697.785 286.104 701.455H277.581ZM300.442 756V701.455H308.538V709.977H309.249C310.385 707.065 312.22 704.804 314.753 703.195C317.286 701.561 320.328 700.744 323.879 700.744C327.478 700.744 330.473 701.561 332.864 703.195C335.279 704.804 337.161 707.065 338.51 709.977H339.078C340.475 707.16 342.57 704.923 345.364 703.266C348.157 701.585 351.507 700.744 355.414 700.744C360.29 700.744 364.28 702.271 367.381 705.325C370.482 708.356 372.033 713.079 372.033 719.494V756H363.652V719.494C363.652 715.47 362.551 712.593 360.35 710.865C358.148 709.137 355.556 708.273 352.573 708.273C348.737 708.273 345.766 709.433 343.659 711.753C341.552 714.049 340.499 716.961 340.499 720.489V756H331.976V718.642C331.976 715.541 330.97 713.043 328.957 711.149C326.945 709.232 324.353 708.273 321.18 708.273C319.002 708.273 316.966 708.853 315.072 710.013C313.202 711.173 311.687 712.783 310.527 714.842C309.391 716.878 308.822 719.234 308.822 721.909V756H300.442ZM403.407 757.278C399.951 757.278 396.814 756.627 393.997 755.325C391.179 754 388.942 752.094 387.285 749.608C385.628 747.098 384.799 744.068 384.799 740.517C384.799 737.392 385.415 734.859 386.646 732.918C387.877 730.953 389.522 729.414 391.582 728.301C393.642 727.188 395.914 726.36 398.4 725.815C400.91 725.247 403.431 724.797 405.964 724.466C409.278 724.04 411.965 723.72 414.025 723.507C416.108 723.27 417.624 722.88 418.571 722.335C419.541 721.791 420.027 720.844 420.027 719.494V719.21C420.027 715.706 419.068 712.984 417.15 711.043C415.256 709.101 412.38 708.131 408.521 708.131C404.52 708.131 401.383 709.007 399.11 710.759C396.838 712.51 395.24 714.381 394.316 716.369L386.362 713.528C387.782 710.214 389.676 707.634 392.044 705.787C394.435 703.917 397.039 702.615 399.856 701.881C402.697 701.123 405.491 700.744 408.237 700.744C409.989 700.744 412.001 700.957 414.274 701.384C416.57 701.786 418.784 702.626 420.914 703.905C423.069 705.183 424.856 707.113 426.277 709.693C427.697 712.274 428.407 715.73 428.407 720.062V756H420.027V748.614H419.6C419.032 749.797 418.085 751.064 416.759 752.413C415.434 753.763 413.67 754.911 411.468 755.858C409.267 756.805 406.58 757.278 403.407 757.278ZM404.686 749.75C408 749.75 410.794 749.099 413.066 747.797C415.363 746.495 417.091 744.814 418.251 742.754C419.435 740.695 420.027 738.528 420.027 736.256V728.585C419.671 729.011 418.89 729.402 417.683 729.757C416.499 730.089 415.126 730.384 413.563 730.645C412.025 730.882 410.521 731.095 409.053 731.284C407.609 731.45 406.437 731.592 405.538 731.71C403.36 731.994 401.324 732.456 399.43 733.095C397.56 733.711 396.044 734.646 394.884 735.901C393.748 737.132 393.18 738.812 393.18 740.943C393.18 743.855 394.257 746.057 396.411 747.548C398.589 749.016 401.348 749.75 404.686 749.75ZM443.704 756V701.455H451.8V709.693H452.368C453.363 706.994 455.162 704.804 457.766 703.124C460.37 701.443 463.306 700.602 466.573 700.602C467.189 700.602 467.958 700.614 468.881 700.638C469.805 700.661 470.503 700.697 470.976 700.744V709.267C470.692 709.196 470.041 709.089 469.023 708.947C468.029 708.782 466.975 708.699 465.863 708.699C463.211 708.699 460.844 709.255 458.761 710.368C456.701 711.457 455.067 712.972 453.86 714.913C452.676 716.831 452.084 719.021 452.084 721.483V756H443.704ZM508.05 701.455V708.557H479.783V701.455H508.05ZM488.022 688.386H496.403V740.375C496.403 742.742 496.746 744.518 497.432 745.702C498.143 746.862 499.042 747.643 500.131 748.045C501.244 748.424 502.416 748.614 503.647 748.614C504.57 748.614 505.328 748.566 505.92 748.472C506.511 748.353 506.985 748.259 507.34 748.188L509.045 755.716C508.476 755.929 507.683 756.142 506.665 756.355C505.647 756.592 504.357 756.71 502.795 756.71C500.427 756.71 498.107 756.201 495.834 755.183C493.585 754.165 491.715 752.615 490.224 750.531C488.756 748.448 488.022 745.82 488.022 742.648V688.386ZM549.918 756V683.273H558.725V715.659H597.503V683.273H606.31V756H597.503V723.472H558.725V756H549.918ZM645.675 757.136C640.419 757.136 635.885 755.976 632.074 753.656C628.286 751.312 625.362 748.045 623.302 743.855C621.266 739.641 620.248 734.741 620.248 729.153C620.248 723.566 621.266 718.642 623.302 714.381C625.362 710.096 628.227 706.758 631.896 704.366C635.589 701.952 639.898 700.744 644.822 700.744C647.663 700.744 650.469 701.218 653.239 702.165C656.008 703.112 658.53 704.651 660.802 706.781C663.075 708.888 664.886 711.682 666.236 715.162C667.585 718.642 668.26 722.927 668.26 728.017V731.568H626.214V724.324H659.737C659.737 721.246 659.122 718.5 657.89 716.085C656.683 713.67 654.955 711.765 652.706 710.368C650.48 708.971 647.853 708.273 644.822 708.273C641.484 708.273 638.596 709.101 636.158 710.759C633.743 712.392 631.884 714.523 630.582 717.151C629.28 719.778 628.629 722.596 628.629 725.602V730.432C628.629 734.551 629.339 738.043 630.76 740.908C632.204 743.749 634.204 745.915 636.761 747.406C639.318 748.874 642.289 749.608 645.675 749.608C647.876 749.608 649.865 749.3 651.64 748.685C653.44 748.045 654.99 747.098 656.292 745.844C657.595 744.565 658.601 742.979 659.311 741.085L667.408 743.358C666.555 746.104 665.123 748.519 663.111 750.602C661.098 752.662 658.613 754.272 655.653 755.432C652.694 756.568 649.368 757.136 645.675 757.136ZM697.06 757.278C693.603 757.278 690.466 756.627 687.649 755.325C684.832 754 682.595 752.094 680.937 749.608C679.28 747.098 678.452 744.068 678.452 740.517C678.452 737.392 679.067 734.859 680.298 732.918C681.529 730.953 683.175 729.414 685.234 728.301C687.294 727.188 689.567 726.36 692.052 725.815C694.562 725.247 697.083 724.797 699.616 724.466C702.931 724.04 705.618 723.72 707.677 723.507C709.761 723.27 711.276 722.88 712.223 722.335C713.194 721.791 713.679 720.844 713.679 719.494V719.21C713.679 715.706 712.72 712.984 710.802 711.043C708.908 709.101 706.032 708.131 702.173 708.131C698.172 708.131 695.035 709.007 692.763 710.759C690.49 712.51 688.892 714.381 687.969 716.369L680.014 713.528C681.435 710.214 683.328 707.634 685.696 705.787C688.087 703.917 690.691 702.615 693.508 701.881C696.349 701.123 699.143 700.744 701.889 700.744C703.641 700.744 705.653 700.957 707.926 701.384C710.222 701.786 712.436 702.626 714.567 703.905C716.721 705.183 718.508 707.113 719.929 709.693C721.349 712.274 722.06 715.73 722.06 720.062V756H713.679V748.614H713.253C712.685 749.797 711.738 751.064 710.412 752.413C709.086 753.763 707.322 754.911 705.121 755.858C702.919 756.805 700.232 757.278 697.06 757.278ZM698.338 749.75C701.652 749.75 704.446 749.099 706.719 747.797C709.015 746.495 710.743 744.814 711.903 742.754C713.087 740.695 713.679 738.528 713.679 736.256V728.585C713.324 729.011 712.542 729.402 711.335 729.757C710.151 730.089 708.778 730.384 707.216 730.645C705.677 730.882 704.174 731.095 702.706 731.284C701.262 731.45 700.09 731.592 699.19 731.71C697.012 731.994 694.976 732.456 693.082 733.095C691.212 733.711 689.697 734.646 688.537 735.901C687.4 737.132 686.832 738.812 686.832 740.943C686.832 743.855 687.909 746.057 690.064 747.548C692.242 749.016 695 749.75 698.338 749.75ZM745.737 683.273V756H737.356V683.273H745.737ZM784.808 701.455V708.557H756.541V701.455H784.808ZM764.78 688.386H773.16V740.375C773.16 742.742 773.504 744.518 774.19 745.702C774.9 746.862 775.8 747.643 776.889 748.045C778.002 748.424 779.174 748.614 780.405 748.614C781.328 748.614 782.086 748.566 782.677 748.472C783.269 748.353 783.743 748.259 784.098 748.188L785.802 755.716C785.234 755.929 784.441 756.142 783.423 756.355C782.405 756.592 781.115 756.71 779.552 756.71C777.185 756.71 774.865 756.201 772.592 755.183C770.343 754.165 768.473 752.615 766.981 750.531C765.514 748.448 764.78 745.82 764.78 742.648V688.386ZM806.967 723.188V756H798.587V683.273H806.967V709.977H807.677C808.956 707.16 810.873 704.923 813.43 703.266C816.011 701.585 819.444 700.744 823.729 700.744C827.445 700.744 830.701 701.49 833.494 702.982C836.288 704.449 838.454 706.71 839.993 709.764C841.555 712.795 842.337 716.653 842.337 721.341V756H833.956V721.909C833.956 717.577 832.831 714.227 830.582 711.859C828.357 709.468 825.267 708.273 821.314 708.273C818.568 708.273 816.105 708.853 813.927 710.013C811.773 711.173 810.069 712.866 808.814 715.091C807.583 717.316 806.967 720.015 806.967 723.188Z" fill="#1B6286"/>
</g>
<g filter="url(#filter2_d_747_7028)">
<path d="M443.402 799V762.636H455.689C458.542 762.636 460.874 763.151 462.685 764.181C464.508 765.199 465.857 766.578 466.733 768.318C467.609 770.058 468.047 772 468.047 774.142C468.047 776.285 467.609 778.232 466.733 779.984C465.869 781.736 464.532 783.132 462.721 784.174C460.91 785.204 458.589 785.719 455.76 785.719H446.954V781.812H455.618C457.571 781.812 459.14 781.475 460.324 780.8C461.507 780.126 462.365 779.214 462.898 778.066C463.443 776.906 463.715 775.598 463.715 774.142C463.715 772.686 463.443 771.384 462.898 770.236C462.365 769.088 461.501 768.188 460.306 767.537C459.11 766.874 457.524 766.543 455.547 766.543H447.806V799H443.402ZM478.763 762.636V799H474.573V762.636H478.763ZM494.463 799.639C492.735 799.639 491.167 799.314 489.758 798.663C488.349 798 487.231 797.047 486.402 795.804C485.574 794.549 485.159 793.034 485.159 791.259C485.159 789.696 485.467 788.429 486.083 787.459C486.698 786.476 487.521 785.707 488.551 785.151C489.58 784.594 490.717 784.18 491.96 783.908C493.214 783.624 494.475 783.399 495.742 783.233C497.399 783.02 498.742 782.86 499.772 782.754C500.814 782.635 501.572 782.44 502.045 782.168C502.53 781.895 502.773 781.422 502.773 780.747V780.605C502.773 778.853 502.294 777.492 501.335 776.521C500.388 775.551 498.95 775.065 497.02 775.065C495.02 775.065 493.451 775.503 492.315 776.379C491.179 777.255 490.38 778.19 489.918 779.185L485.941 777.764C486.651 776.107 487.598 774.817 488.781 773.893C489.977 772.958 491.279 772.307 492.688 771.94C494.108 771.562 495.505 771.372 496.878 771.372C497.754 771.372 498.76 771.479 499.897 771.692C501.045 771.893 502.152 772.313 503.217 772.952C504.294 773.592 505.188 774.556 505.898 775.847C506.608 777.137 506.963 778.865 506.963 781.031V799H502.773V795.307H502.56C502.276 795.899 501.802 796.532 501.139 797.207C500.477 797.881 499.595 798.455 498.494 798.929C497.393 799.402 496.049 799.639 494.463 799.639ZM495.103 795.875C496.76 795.875 498.156 795.549 499.293 794.898C500.441 794.247 501.305 793.407 501.885 792.377C502.477 791.347 502.773 790.264 502.773 789.128V785.293C502.595 785.506 502.205 785.701 501.601 785.879C501.009 786.044 500.323 786.192 499.541 786.322C498.772 786.441 498.02 786.547 497.286 786.642C496.564 786.725 495.978 786.796 495.529 786.855C494.44 786.997 493.422 787.228 492.475 787.548C491.54 787.855 490.782 788.323 490.202 788.95C489.634 789.566 489.35 790.406 489.35 791.472C489.35 792.928 489.888 794.028 490.965 794.774C492.054 795.508 493.433 795.875 495.103 795.875ZM526.472 771.727V775.278H512.339V771.727H526.472ZM516.458 765.193H520.649V791.188C520.649 792.371 520.82 793.259 521.163 793.851C521.519 794.431 521.968 794.821 522.513 795.023C523.069 795.212 523.655 795.307 524.271 795.307C524.732 795.307 525.111 795.283 525.407 795.236C525.703 795.177 525.94 795.129 526.117 795.094L526.97 798.858C526.685 798.964 526.289 799.071 525.78 799.178C525.271 799.296 524.626 799.355 523.845 799.355C522.661 799.355 521.501 799.101 520.364 798.592C519.24 798.083 518.305 797.307 517.559 796.266C516.825 795.224 516.458 793.91 516.458 792.324V765.193ZM544.921 771.727V775.278H530.219V771.727H544.921ZM534.622 799V767.963C534.622 766.401 534.989 765.098 535.723 764.057C536.457 763.015 537.41 762.234 538.582 761.713C539.754 761.192 540.991 760.932 542.293 760.932C543.323 760.932 544.163 761.015 544.814 761.18C545.465 761.346 545.95 761.5 546.27 761.642L545.063 765.264C544.849 765.193 544.554 765.104 544.175 764.998C543.808 764.891 543.323 764.838 542.719 764.838C541.334 764.838 540.334 765.187 539.718 765.886C539.114 766.584 538.813 767.608 538.813 768.957V799H534.622ZM560.75 799.568C558.288 799.568 556.127 798.982 554.269 797.81C552.422 796.638 550.978 794.999 549.937 792.892C548.907 790.785 548.392 788.323 548.392 785.506C548.392 782.665 548.907 780.185 549.937 778.066C550.978 775.947 552.422 774.302 554.269 773.13C556.127 771.958 558.288 771.372 560.75 771.372C563.212 771.372 565.366 771.958 567.213 773.13C569.071 774.302 570.515 775.947 571.545 778.066C572.587 780.185 573.108 782.665 573.108 785.506C573.108 788.323 572.587 790.785 571.545 792.892C570.515 794.999 569.071 796.638 567.213 797.81C565.366 798.982 563.212 799.568 560.75 799.568ZM560.75 795.804C562.62 795.804 564.159 795.325 565.366 794.366C566.574 793.407 567.467 792.146 568.047 790.584C568.627 789.021 568.917 787.329 568.917 785.506C568.917 783.683 568.627 781.984 568.047 780.41C567.467 778.835 566.574 777.563 565.366 776.592C564.159 775.622 562.62 775.136 560.75 775.136C558.879 775.136 557.341 775.622 556.133 776.592C554.926 777.563 554.032 778.835 553.452 780.41C552.872 781.984 552.582 783.683 552.582 785.506C552.582 787.329 552.872 789.021 553.452 790.584C554.032 792.146 554.926 793.407 556.133 794.366C557.341 795.325 558.879 795.804 560.75 795.804ZM579.504 799V771.727H583.552V775.847H583.837C584.334 774.497 585.233 773.402 586.535 772.562C587.837 771.721 589.305 771.301 590.939 771.301C591.247 771.301 591.631 771.307 592.093 771.319C592.555 771.331 592.904 771.348 593.141 771.372V775.634C592.998 775.598 592.673 775.545 592.164 775.474C591.667 775.391 591.14 775.349 590.584 775.349C589.258 775.349 588.074 775.628 587.033 776.184C586.003 776.728 585.186 777.486 584.582 778.457C583.99 779.415 583.694 780.51 583.694 781.741V799H579.504ZM598.108 799V771.727H602.156V775.989H602.511C603.079 774.533 603.997 773.402 605.263 772.597C606.53 771.781 608.051 771.372 609.826 771.372C611.626 771.372 613.123 771.781 614.319 772.597C615.526 773.402 616.467 774.533 617.142 775.989H617.426C618.124 774.58 619.172 773.461 620.569 772.633C621.965 771.792 623.64 771.372 625.593 771.372C628.032 771.372 630.026 772.136 631.577 773.663C633.128 775.178 633.903 777.539 633.903 780.747V799H629.713V780.747C629.713 778.735 629.162 777.297 628.061 776.433C626.961 775.568 625.664 775.136 624.173 775.136C622.255 775.136 620.77 775.716 619.716 776.876C618.663 778.025 618.136 779.481 618.136 781.244V799H613.875V780.321C613.875 778.77 613.372 777.522 612.365 776.575C611.359 775.616 610.063 775.136 608.477 775.136C607.388 775.136 606.37 775.426 605.423 776.006C604.488 776.586 603.73 777.391 603.15 778.421C602.582 779.439 602.298 780.617 602.298 781.955V799H598.108Z" fill="#48B5AA"/>
</g>
<path d="M769 689V704M769 704V719M769 704H754M769 704H784" stroke="#FF0000" stroke-width="10" stroke-linecap="round" stroke-linejoin="round"/>
<g filter="url(#filter3_d_747_7028)">
<path d="M535.865 379.904C491.959 340.726 440.155 326.416 402.463 348.178C349.038 379.022 344.197 470.657 391.651 552.85C422.85 606.888 468.885 643.39 511.945 653.292" stroke="#FF0000" stroke-width="9" stroke-linecap="round" stroke-linejoin="round"/>
</g>
<g filter="url(#filter4_d_747_7028)">
<path d="M492.385 444.15C444.931 526.342 449.772 617.977 503.197 648.823C556.622 679.667 638.4 638.042 685.855 555.85C733.308 473.657 728.467 382.022 675.042 351.178C621.617 320.333 539.838 361.958 492.385 444.15Z" stroke="#48B5AA" stroke-width="9" stroke-linecap="round" stroke-linejoin="round"/>
</g>
<path d="M529.355 475.398C528.812 476.708 528.812 478.368 528.812 481.688V488.471C528.812 488.632 528.813 488.712 528.762 488.762C528.712 488.813 528.632 488.812 528.471 488.812H521.688C518.368 488.812 516.708 488.812 515.398 489.355C513.653 490.078 512.266 491.465 511.542 493.211C511 494.52 511 496.18 511 499.5C511 502.82 511 504.48 511.542 505.789C512.266 507.535 513.653 508.922 515.398 509.645C516.708 510.188 518.368 510.188 521.688 510.188H528.471C528.632 510.188 528.712 510.188 528.762 510.238C528.813 510.288 528.812 510.368 528.812 510.529V517.312C528.812 520.632 528.812 522.292 529.355 523.602C530.078 525.347 531.465 526.735 533.211 527.458C534.52 528 536.18 528 539.5 528C542.82 528 544.48 528 545.789 527.458C547.535 526.735 548.922 525.347 549.645 523.602C550.188 522.292 550.188 520.632 550.188 517.312V510.529C550.188 510.368 550.188 510.288 550.238 510.238C550.288 510.188 550.368 510.188 550.529 510.188H557.312C560.632 510.188 562.292 510.188 563.602 509.645C565.347 508.922 566.735 507.535 567.458 505.789C568 504.48 568 502.82 568 499.5C568 496.18 568 494.52 567.458 493.211C566.735 491.465 565.347 490.078 563.602 489.355C562.292 488.813 560.632 488.812 557.312 488.812H550.529C550.368 488.812 550.288 488.813 550.238 488.762C550.188 488.712 550.188 488.632 550.188 488.471V481.688C550.188 478.368 550.188 476.708 549.645 475.398C548.922 473.653 547.535 472.266 545.789 471.542C544.48 471 542.82 471 539.5 471C536.18 471 534.52 471 533.211 471.542C531.465 472.266 530.078 473.653 529.355 475.398Z" stroke="#FF0000" stroke-width="6"/>
</g>
<defs>
<filter id="filter0_d_747_7028" x="225" y="333" width="629" height="486" filterUnits="userSpaceOnUse" color-interpolation-filters="sRGB">
<feFlood flood-opacity="0" result="BackgroundImageFix"/>
<feColorMatrix in="SourceAlpha" type="matrix" values="0 0 0 0 0 0 0 0 0 0 0 0 0 0 0 0 0 0 127 0" result="hardAlpha"/>
<feOffset dy="4"/>
<feGaussianBlur stdDeviation="2"/>
<feComposite in2="hardAlpha" operator="out"/>
<feColorMatrix type="matrix" values="0 0 0 0 0.376471 0 0 0 0 0.376471 0 0 0 0 0.376471 0 0 0 1 0"/>
<feBlend mode="normal" in2="BackgroundImageFix" result="effect1_dropShadow_747_7028"/>
<feBlend mode="normal" in="SourceGraphic" in2="effect1_dropShadow_747_7028" result="shape"/>
</filter>
<filter id="filter1_d_747_7028" x="230.684" y="682.278" width="615.652" height="83" filterUnits="userSpaceOnUse" color-interpolation-filters="sRGB">
<feFlood flood-opacity="0" result="BackgroundImageFix"/>
<feColorMatrix in="SourceAlpha" type="matrix" values="0 0 0 0 0 0 0 0 0 0 0 0 0 0 0 0 0 0 127 0" result="hardAlpha"/>
<feOffset dy="4"/>
<feGaussianBlur stdDeviation="2"/>
<feComposite in2="hardAlpha" operator="out"/>
<feColorMatrix type="matrix" values="0 0 0 0 0 0 0 0 0 0 0 0 0 0 0 0 0 0 0.25 0"/>
<feBlend mode="normal" in2="BackgroundImageFix" result="effect1_dropShadow_747_7028"/>
<feBlend mode="normal" in="SourceGraphic" in2="effect1_dropShadow_747_7028" result="shape"/>
</filter>
<filter id="filter2_d_747_7028" x="439.402" y="760.932" width="198.5" height="46.707" filterUnits="userSpaceOnUse" color-interpolation-filters="sRGB">
<feFlood flood-opacity="0" result="BackgroundImageFix"/>
<feColorMatrix in="SourceAlpha" type="matrix" values="0 0 0 0 0 0 0 0 0 0 0 0 0 0 0 0 0 0 127 0" result="hardAlpha"/>
<feOffset dy="4"/>
<feGaussianBlur stdDeviation="2"/>
<feComposite in2="hardAlpha" operator="out"/>
<feColorMatrix type="matrix" values="0 0 0 0 0 0 0 0 0 0 0 0 0 0 0 0 0 0 0.25 0"/>
<feBlend mode="normal" in2="BackgroundImageFix" result="effect1_dropShadow_747_7028"/>
<feBlend mode="normal" in="SourceGraphic" in2="effect1_dropShadow_747_7028" result="shape"/>
</filter>
<filter id="filter3_d_747_7028" x="350.5" y="333.482" width="193.863" height="332.311" filterUnits="userSpaceOnUse" color-interpolation-filters="sRGB">
<feFlood flood-opacity="0" result="BackgroundImageFix"/>
<feColorMatrix in="SourceAlpha" type="matrix" values="0 0 0 0 0 0 0 0 0 0 0 0 0 0 0 0 0 0 127 0" result="hardAlpha"/>
<feOffset dy="4"/>
<feGaussianBlur stdDeviation="2"/>
<feComposite in2="hardAlpha" operator="out"/>
<feColorMatrix type="matrix" values="0 0 0 0 0 0 0 0 0 0 0 0 0 0 0 0 0 0 0.25 0"/>
<feBlend mode="normal" in2="BackgroundImageFix" result="effect1_dropShadow_747_7028"/>
<feBlend mode="normal" in="SourceGraphic" in2="effect1_dropShadow_747_7028" result="shape"/>
</filter>
<filter id="filter4_d_747_7028" x="451.234" y="336.499" width="275.77" height="335.003" filterUnits="userSpaceOnUse" color-interpolation-filters="sRGB">
<feFlood flood-opacity="0" result="BackgroundImageFix"/>
<feColorMatrix in="SourceAlpha" type="matrix" values="0 0 0 0 0 0 0 0 0 0 0 0 0 0 0 0 0 0 127 0" result="hardAlpha"/>
<feOffset dy="4"/>
<feGaussianBlur stdDeviation="2"/>
<feComposite in2="hardAlpha" operator="out"/>
<feColorMatrix type="matrix" values="0 0 0 0 0 0 0 0 0 0 0 0 0 0 0 0 0 0 0.25 0"/>
<feBlend mode="normal" in2="BackgroundImageFix" result="effect1_dropShadow_747_7028"/>
<feBlend mode="normal" in="SourceGraphic" in2="effect1_dropShadow_747_7028" result="shape"/>
</filter>
</defs>
</svg>
